<?xml version="1.0" standalone="no"?>
<!DOCTYPE svg PUBLIC "-//W3C//DTD SVG 20010904//EN"
 "http://www.w3.org/TR/2001/REC-SVG-20010904/DTD/svg10.dtd">
<svg version="1.0" xmlns="http://www.w3.org/2000/svg"
 width="439.000000pt" height="439.000000pt" viewBox="0 0 439.000000 439.000000"
 preserveAspectRatio="xMidYMid meet">
<style>
path {
    fill: black;
}
@media (prefers-color-scheme: dark) {
    path {
        fill: white;
    }
}
</style>
<g transform="translate(0.000000,439.000000) scale(0.100000,-0.100000)" stroke="none">
<path d="M680 2195 l0 -1255 390 0 390 0 2 544 3 545 269 -435 269 -434 186 0
186 0 270 455 270 454 6 -152 c4 -84 7 -338 8 -564 l1 -413 385 0 385 0 0
1203 c0 661 -3 1226 -6 1255 l-7 52 -300 0 c-329 0 -358 -4 -410 -55 -17 -18
-198 -312 -402 -654 -203 -342 -372 -620 -377 -619 -4 2 -176 280 -382 618
-207 338 -391 632 -410 652 -19 21 -51 41 -73 47 -23 7 -159 11 -345 11 l-308
0 0 -1255z"/>
<path d="M1715 3384 c184 -314 241 -404 256 -404 16 0 200 143 207 160 2 4
-97 65 -220 136 -123 70 -234 135 -248 143 -24 16 -24 16 5 -35z"/>
<path d="M2460 3294 c-129 -75 -241 -139 -249 -143 -17 -10 182 -174 206 -169
9 2 75 101 149 226 73 122 132 222 131 222 -1 0 -108 -61 -237 -136z"/>
</g>
</svg>
